<svg width="24" height="24" viewBox="0 0 24 24" fill="none" xmlns="http://www.w3.org/2000/svg">
<path d="M13 18.9999V7.82992L17.88 12.7099C18.27 13.0999 18.91 13.0999 19.3 12.7099C19.3927 12.6174 19.4662 12.5075 19.5164 12.3865C19.5666 12.2656 19.5924 12.1359 19.5924 12.0049C19.5924 11.874 19.5666 11.7443 19.5164 11.6233C19.4662 11.5023 19.3927 11.3924 19.3 11.2999L12.71 4.70992C12.6175 4.61722 12.5076 4.54367 12.3866 4.49349C12.2656 4.44331 12.1359 4.41748 12.005 4.41748C11.874 4.41748 11.7443 4.44331 11.6234 4.49349C11.5024 4.54367 11.3925 4.61722 11.3 4.70992L4.69998 11.2899C4.6074 11.3825 4.53396 11.4924 4.48385 11.6134C4.43375 11.7343 4.40796 11.864 4.40796 11.9949C4.40796 12.1259 4.43375 12.2555 4.48385 12.3765C4.53396 12.4974 4.6074 12.6073 4.69998 12.6999C4.79256 12.7925 4.90247 12.8659 5.02344 12.9161C5.1444 12.9662 5.27405 12.9919 5.40498 12.9919C5.53591 12.9919 5.66556 12.9662 5.78652 12.9161C5.90749 12.8659 6.0174 12.7925 6.10998 12.6999L11 7.82992V18.9999C11 19.5499 11.45 19.9999 12 19.9999C12.55 19.9999 13 19.5499 13 18.9999Z" fill="#5A9138"/>
</svg>
