<svg width="28" height="28" viewBox="0 0 28 28" fill="none" xmlns="http://www.w3.org/2000/svg">
<path d="M3.5 8.76267C2.96323 9.10529 2.52149 9.5777 2.21562 10.1362C1.90974 10.6948 1.7496 11.3214 1.75 11.9582V18.9582C1.75 22.3415 4.49167 25.0832 7.875 25.0832H18.375C19.7167 25.0832 20.8962 24.3855 21.5705 23.3332H7.875C6.71468 23.3332 5.60188 22.8722 4.78141 22.0518C3.96094 21.2313 3.5 20.1185 3.5 18.9582V8.76267ZM4.66667 9.4615V18.3748C4.6666 19.3433 5.03715 20.2751 5.70228 20.9791C6.36742 21.6831 7.27673 22.1058 8.24367 22.1607L8.45833 22.1665H21.875C22.8435 22.1666 23.7753 21.796 24.4793 21.1309C25.1832 20.4657 25.606 19.5564 25.6608 18.5895L25.6667 18.3748V9.4615L15.575 14.7745C15.4491 14.8409 15.309 14.8756 15.1667 14.8756C15.0244 14.8756 14.8842 14.8409 14.7583 14.7745L4.66667 9.4615ZM21.875 4.6665H8.45833C7.61172 4.66645 6.78942 4.94966 6.12239 5.47102C5.45535 5.99239 4.98193 6.72194 4.7775 7.5435L15.1667 13.0105L25.5558 7.5435C25.3602 6.75878 24.919 6.05708 24.2965 5.54079C23.674 5.02449 22.9029 4.72062 22.0955 4.6735L21.875 4.6665Z" fill="black"/>
</svg>
