<svg width="773" height="682" viewBox="0 0 773 682" fill="none" xmlns="http://www.w3.org/2000/svg">
<path d="M0 315.9C0 297.282 7.40375 279.426 20.5824 266.261C33.7611 253.096 51.6353 245.7 70.2727 245.7H292.335L258.604 85.293C257.901 81.783 257.55 77.922 257.55 74.061C257.55 59.67 263.523 46.332 273.01 36.855L310.254 0L541.451 230.958C554.452 243.945 562.182 261.495 562.182 280.8V631.8C562.182 650.418 554.778 668.274 541.599 681.439C528.421 694.604 510.547 702 491.909 702H175.682C146.519 702 121.572 684.45 111.031 659.178L4.91907 411.723C1.75677 403.65 0 395.226 0 386.1V315.9ZM773 702H632.455V280.8H773V702Z" fill="white" fill-opacity="0.28"/>
</svg>
